<mxfile host="drawio-plugin" modified="2023-06-16T14:19:54.458Z" agent="5.0 (Windows NT 6.2; Win64; x64) AppleWebKit/537.36 (KHTML, like Gecko) Chrome/104.0.5112.102 Safari/537.36" version="20.5.3" etag="24G2XPD4T_x_B8QH-zkS" type="embed"><diagram id="RJ7OSyM5DiNOzhmmaQ3h" name="Page-1"><mxGraphModel dx="819" dy="1249" grid="1" gridSize="10" guides="1" tooltips="1" connect="1" arrows="1" fold="1" page="1" pageScale="1" pageWidth="850" pageHeight="1100" math="0" shadow="0"><root><mxCell id="0"/><mxCell id="1" parent="0"/><mxCell id="6" value="API-token:" style="text;html=1;strokeColor=none;fillColor=none;align=center;verticalAlign=middle;whiteSpace=wrap;rounded=0;" vertex="1" parent="1"><mxGeometry x="80" y="85" width="60" height="30" as="geometry"/></mxCell><mxCell id="8" value="" style="rounded=1;whiteSpace=wrap;html=1;" vertex="1" parent="1"><mxGeometry x="200" y="80" width="200" height="40" as="geometry"/></mxCell><mxCell id="10" value="Generate new token" style="text;html=1;align=center;verticalAlign=middle;whiteSpace=wrap;rounded=0;" vertex="1" parent="1"><mxGeometry x="200" y="120" width="120" height="30" as="geometry"/></mxCell><mxCell id="12" value="" style="swimlane;startSize=0;" vertex="1" parent="1"><mxGeometry x="40" y="40" width="400" height="200" as="geometry"/></mxCell><mxCell id="9" value="Send test-message" style="text;html=1;align=center;verticalAlign=middle;whiteSpace=wrap;rounded=0;" vertex="1" parent="12"><mxGeometry x="40" y="120" width="110" height="30" as="geometry"/></mxCell><mxCell id="13" value="Token Entry Page" style="text;html=1;align=center;verticalAlign=middle;resizable=0;points=[];autosize=1;strokeColor=none;fillColor=none;" vertex="1" parent="12"><mxGeometry width="120" height="30" as="geometry"/></mxCell></root></mxGraphModel></diagram></mxfile>